<mxfile host="app.diagrams.net" modified="2024-11-29T15:09:02.843Z" agent="Mozilla/5.0 (Windows NT 10.0; Win64; x64) AppleWebKit/537.36 (KHTML, like Gecko) Chrome/131.0.0.0 Safari/537.36" version="24.7.0" etag="zzXg73CHzDAldpE8FviE" type="github">
  <diagram name="Page-1" id="7GVA9182DgbOcYEtwYYX">
    <mxGraphModel>
      <root>
        <mxCell id="0" />
        <mxCell id="1" parent="0" />
      </root>
    </mxGraphModel>
  </diagram>
</mxfile>
